<svg width="139" height="43" viewBox="0 0 139 43" fill="none" xmlns="http://www.w3.org/2000/svg">
<g clip-path="url(#clip0_157_525)">
<path d="M10.2212 2.91324C14.841 2.91324 18.4425 6.02571 18.4425 11.0392C18.4425 16.0527 14.841 19.1279 10.2212 19.1279C5.60151 19.1279 2 16.0341 2 11.0206C2 6.00707 5.60151 2.91324 10.2212 2.91324ZM10.2212 15.7359C13.0308 15.7359 14.7656 13.8907 14.7656 11.0392C14.7656 8.18766 13.0308 6.30527 10.2212 6.30527C7.41169 6.30527 5.71464 8.18766 5.71464 11.0392C5.71464 13.8907 7.37398 15.7359 10.2212 15.7359ZM9.80641 21.9422V27.4402H27.6631V31H5.80893V21.9422H9.80641ZM22.836 24.4582V2H26.8334V11.0206H32V14.6176H26.8334V24.4582H22.836Z" fill="white"/>
<path d="M48.4698 17.9176C44.8797 16.1387 43.1402 13.6556 42.6406 12.7105C42.3815 12.2473 42.1409 11.747 42.0484 11.2837H41.5117C41.4192 11.747 41.3452 12.2102 41.0121 12.9514C40.2164 14.6933 38.6434 17.1578 34.9238 19.3259L32 16.7502C38.8285 13.007 39.7907 7.6147 39.7907 4.33482V2.74121H43.6214V4.33482C43.6214 7.42939 44.5281 12.0435 51.19 15.0083L48.4883 17.9176H48.4698ZM37.0335 31V20.4933H58V31H37.0335ZM54.0584 24.0326H40.9381V27.4607H54.0584V24.0326ZM54.0584 18.8256V2H57.9815V18.807H54.0584V18.8256Z" fill="white"/>
<path d="M88.7832 29.8467C85.1251 28.0757 83.3526 25.6037 82.8434 24.6628C82.5794 24.2016 82.3343 23.7035 82.24 23.2424H81.6932C81.5989 23.7035 81.5235 24.1647 81.1841 24.9027C80.3732 26.6368 78.7704 29.0903 74.9803 31.2487L72.001 28.6845C78.959 24.958 79.9395 19.5897 79.9395 16.3244V14.7379H83.8428V16.3244C83.8428 19.4052 84.7668 23.9987 91.5551 26.9504L88.8021 29.8467H88.7832ZM87.3313 31.7468C94.8361 31.7468 98.4 33.9974 98.4 37.3918C98.4 40.7862 94.8361 43 87.3313 43C79.8264 43 76.3002 40.7493 76.3002 37.3918C76.3002 34.0343 79.7887 31.7468 87.3313 31.7468ZM87.3313 39.6609C91.2723 39.6609 94.2516 39.1997 94.2516 37.4103C94.2516 35.6208 91.2723 35.1228 87.3313 35.1228C83.3903 35.1228 80.4298 35.6208 80.4298 37.4103C80.4298 39.1997 83.4091 39.6609 87.3313 39.6609ZM93.8556 30.9167V14H97.8343V21.6005H103.001V25.1609H97.8343V30.9167H93.8556Z" fill="#B79864"/>
<path d="M103.001 31.5511V27.8491H115.044V24.3005H118.996V27.8491H131.001V31.5511H103.02H103.001ZM116.729 19.9079C116.636 20.2915 116.486 20.6752 115.624 21.6726C114.519 22.9578 110.83 25.0486 106.653 25.8926L104.799 22.7468C111.673 21.289 115.044 17.702 115.044 15.1125V14H118.996V15.1125C118.996 17.7404 121.955 20.8862 129.184 22.1522L127.368 25.3555C123.153 24.7033 119.951 22.9002 118.527 21.5192C117.778 20.7519 117.422 20.2724 117.31 19.8887H116.729V19.9079ZM123.753 37.4207H105.979V33.6995H127.705V44H123.753V37.4399V37.4207Z" fill="#B79864"/>
<path d="M57 28.9994C58.2857 28.9995 65.3571 29.2957 65.3571 21.7969" stroke="white" stroke-width="4"/>
<path d="M80.3594 7.00063C79.0737 7.00053 72.0022 6.70428 72.0022 14.2031" stroke="#B79864" stroke-width="4"/>
</g>
<defs>
<clipPath id="clip0_157_525">
<rect width="139" height="43" fill="white"/>
</clipPath>
</defs>
</svg>
