<svg width="232" height="145" viewBox="0 0 232 145" fill="none" xmlns="http://www.w3.org/2000/svg">
<path d="M53.1313 0.639998H59.8113V28.44H53.1313V0.639998ZM39.4113 16.44C37.2246 19.7467 34.2646 22.4267 30.5313 24.48L26.9313 19.84C29.3579 18.4533 31.2913 16.92 32.7313 15.24C34.1713 13.5333 35.1979 11.6667 35.8113 9.64C36.4513 7.58667 36.8113 5.24 36.8913 2.6L43.4513 3.2C43.4246 5.68 43.0513 8.08 42.3313 10.4C43.1046 11.8933 44.4113 13.4667 46.2513 15.12C48.1179 16.7467 49.9179 17.9467 51.6513 18.72L48.2113 23.56C46.7446 22.8667 45.1846 21.8667 43.5313 20.56C41.9046 19.2267 40.5313 17.8533 39.4113 16.44ZM40.7313 25.84V33.08H61.0113V38.2H34.0113V25.84H40.7313ZM79.8388 10.36C78.2388 11.9067 76.3321 13.1867 74.1188 14.2C71.9321 15.2133 69.6121 15.92 67.1588 16.32L64.4788 11.16C68.4254 10.5733 71.5321 9.44 73.7988 7.76C76.0921 6.05333 77.3454 3.77333 77.5588 0.92L84.1588 1.48C83.9988 2.97333 83.6654 4.32 83.1588 5.52C84.5454 6.77333 86.4388 7.92 88.8388 8.96C91.2654 9.97333 93.7321 10.6533 96.2388 11L93.5188 16.2C90.9854 15.72 88.4654 14.9467 85.9588 13.88C83.4788 12.8133 81.4388 11.64 79.8388 10.36ZM83.6388 14.6V18.48H98.1188V23.68H62.5188V18.48H76.9988V14.6H83.6388ZM86.5188 30.88H66.8388V25.8H93.2388V39.2H86.5188V30.88ZM133.306 19V24.6H118.866V38.96H112.146V24.6H97.7063V19H119.106C119.88 17.5067 120.506 15.8133 120.986 13.92C121.493 12 121.746 10.2667 121.746 8.72V7.88H102.426V2.48H128.746V4.28C128.746 10.0933 127.813 15 125.946 19H133.306ZM160.814 38.96V0.639998H167.094V38.96H160.814ZM148.614 15.12H152.854V1.52H159.014V37.08H152.854V20.56H148.614V15.12ZM145.014 16.2C145.467 18.2267 146.44 20.4133 147.934 22.76C149.427 25.1067 150.88 26.8533 152.294 28L148.054 32.24C147.12 31.4133 146.147 30.3333 145.134 29C144.12 27.6667 143.24 26.2667 142.494 24.8C140.974 28.16 138.987 30.84 136.534 32.84L132.214 28.72C134.667 26.6667 136.414 24.2533 137.454 21.48C138.494 18.68 139.067 15.2533 139.174 11.2H133.454V5.8H150.894V11.2H145.494C145.414 12.9333 145.254 14.6 145.014 16.2ZM198.921 16.72H173.041V1.88H179.761V11.68H198.921V16.72ZM203.681 24.52H168.081V19.24H203.681V24.52ZM199.361 38.2H172.801V26.68H179.521V33H199.361V38.2ZM11.2392 81.36H22.6392V87.36H0.399219V82.84L9.99922 74.56C11.3059 73.44 12.2926 72.5067 12.9592 71.76C13.6259 71.0133 14.0926 70.3067 14.3592 69.64C14.6526 68.9733 14.7992 68.2133 14.7992 67.36C14.7992 66.08 14.5059 65.08 13.9192 64.36C13.3326 63.64 12.5326 63.28 11.5192 63.28C10.0526 63.28 8.97255 63.7867 8.27922 64.8C7.58589 65.7867 7.07922 67.0533 6.75922 68.6L0.399219 66.56C1.01255 63.6533 2.27922 61.32 4.19922 59.56C6.11922 57.8 8.62589 56.92 11.7192 56.92C13.6392 56.92 15.3592 57.32 16.8792 58.12C18.4259 58.92 19.6259 60.0533 20.4792 61.52C21.3592 62.96 21.7992 64.6267 21.7992 66.52C21.7992 68.76 21.3326 70.7067 20.3992 72.36C19.4926 73.9867 18.0526 75.6267 16.0792 77.28L11.2392 81.36ZM42.2877 76.12H46.4877V81.92H42.2877V87.36H35.7677V81.92H22.8477V76.6L36.2877 57.28H42.2877V76.12ZM35.7677 67.52L29.7277 76.12H35.7677V67.52ZM72.4727 91.96V53.64H79.1527V91.96H72.4727ZM61.4727 68.68C61.9793 70.0933 62.7927 71.6267 63.9127 73.28C65.0327 74.9333 66.2727 76.4533 67.6327 77.84C69.0193 79.2267 70.3127 80.28 71.5127 81L67.4327 85.76C65.966 84.8 64.406 83.4533 62.7527 81.72C61.0993 79.96 59.6993 78.16 58.5527 76.32C56.366 80.5067 53.526 83.8667 50.0327 86.4L45.8327 81.84C48.3927 79.8933 50.4193 77.7333 51.9127 75.36C53.4327 72.9867 54.5127 70.36 55.1527 67.48C55.8193 64.6 56.1927 61.2667 56.2727 57.48L62.8327 58.08C62.7793 61.92 62.326 65.4533 61.4727 68.68ZM112.3 53.64V64.04H117.02V69.48H112.3V81.44H105.62V53.64H112.3ZM101.86 56.68C101.78 61.1067 101.033 64.72 99.6202 67.52C98.2068 70.32 96.2068 72.5067 93.6202 74.08C91.0602 75.6533 87.7668 76.9333 83.7402 77.92L81.1802 72.64C85.7402 71.68 89.1268 70.3067 91.3402 68.52C93.5535 66.7067 94.7535 64.52 94.9402 61.96H83.4202V56.68H101.86ZM87.4202 78.84H94.1402V86.08H114.02V91.2H87.4202V78.84ZM155.878 53.64V62.56H160.598V67.96H155.878V76.04H149.198V53.64H155.878ZM136.358 68.28C134.172 71.48 131.252 74.08 127.598 76.08L124.038 71.44C126.438 70.1067 128.332 68.64 129.718 67.04C131.132 65.4133 132.145 63.64 132.758 61.72C133.398 59.7733 133.758 57.5333 133.838 55L140.318 55.6C140.292 58 139.932 60.28 139.238 62.44C140.012 63.88 141.305 65.3867 143.118 66.96C144.932 68.5067 146.678 69.64 148.358 70.36L144.958 75.16C143.518 74.4933 141.998 73.52 140.398 72.24C138.798 70.96 137.452 69.64 136.358 68.28ZM142.598 76.4C147.052 76.4 150.425 77.0533 152.718 78.36C155.038 79.64 156.198 81.56 156.198 84.12C156.198 86.68 155.038 88.6 152.718 89.88C150.425 91.1867 147.052 91.84 142.598 91.84C138.118 91.84 134.718 91.1867 132.398 89.88C130.105 88.6 128.958 86.68 128.958 84.12C128.958 81.56 130.105 79.64 132.398 78.36C134.718 77.0533 138.118 76.4 142.598 76.4ZM142.598 86.88C144.945 86.88 146.678 86.6533 147.798 86.2C148.918 85.7467 149.478 85.0533 149.478 84.12C149.478 83.1867 148.918 82.4933 147.798 82.04C146.678 81.5867 144.945 81.36 142.598 81.36C140.252 81.36 138.505 81.5867 137.358 82.04C136.238 82.4933 135.678 83.1867 135.678 84.12C135.678 85.0533 136.238 85.7467 137.358 86.2C138.505 86.6533 140.252 86.88 142.598 86.88ZM191.066 62.24H195.786V67.6H191.066V75.24H184.386V53.64H191.066V62.24ZM182.226 71.88C180.679 72.4667 178.746 72.92 176.426 73.24C174.106 73.5333 171.679 73.68 169.146 73.68C166.319 73.68 163.826 73.52 161.666 73.2V56.24H179.746V61.2H168.226V68.72C169.079 68.7733 169.799 68.8 170.386 68.8C172.279 68.8 174.212 68.6667 176.186 68.4C178.186 68.1067 179.866 67.6933 181.226 67.16L182.226 71.88ZM191.066 91.44H165.746V76.84H191.066V91.44ZM184.386 81.8H172.426V86.48H184.386V81.8ZM213.213 67.76C208.76 67.76 205.373 67.1867 203.053 66.04C200.76 64.8667 199.613 63.16 199.613 60.92C199.613 58.68 200.773 56.9733 203.093 55.8C205.413 54.6267 208.787 54.04 213.213 54.04C217.64 54.04 221.013 54.6267 223.333 55.8C225.653 56.9733 226.813 58.68 226.813 60.92C226.813 63.16 225.653 64.8667 223.333 66.04C221.04 67.1867 217.667 67.76 213.213 67.76ZM213.213 62.96C217.827 62.96 220.133 62.28 220.133 60.92C220.133 60.2267 219.547 59.7067 218.373 59.36C217.2 59.0133 215.48 58.84 213.213 58.84C208.627 58.84 206.333 59.5333 206.333 60.92C206.333 62.28 208.627 62.96 213.213 62.96ZM231.013 73.84H195.413V68.88H231.013V73.84ZM227.213 91.64H199.933V81.36H219.573V80.04H199.933V75.28H226.253V85.48H206.613V86.84H227.213V91.64ZM48.0961 106.64H54.7761V134.44H48.0961V106.64ZM34.6961 123.8C33.6294 125.293 32.3228 126.64 30.7761 127.84C29.2294 129.013 27.5094 129.987 25.6161 130.76L22.2961 125.92C25.3361 124.667 27.5094 123.16 28.8161 121.4C30.1494 119.613 30.9228 117.493 31.1361 115.04H23.6161V109.84H44.9361V115.04H37.7361C37.7094 115.947 37.5894 116.84 37.3761 117.72C38.1494 119.187 39.4028 120.6 41.1361 121.96C42.8694 123.293 44.6294 124.293 46.4161 124.96L43.1361 129.84C41.6961 129.227 40.1894 128.373 38.6161 127.28C37.0694 126.187 35.7628 125.027 34.6961 123.8ZM35.6961 131.84V139.08H55.9761V144.2H28.9761V131.84H35.6961ZM85.3236 122.4H83.2836V130.56H77.2436V107.24H83.2836V117.16H85.3236V106.64H91.4836V132.04H85.3236V122.4ZM62.0836 107.6H71.9636V112.12H62.0836V107.6ZM57.8036 113.4H75.9236V117.96H57.8036V113.4ZM75.4436 125.04C75.4436 127.12 74.6836 128.693 73.1636 129.76C71.6703 130.8 69.6169 131.32 67.0036 131.32C64.4169 131.32 62.3636 130.8 60.8436 129.76C59.3236 128.693 58.5636 127.12 58.5636 125.04C58.5636 122.987 59.3236 121.44 60.8436 120.4C62.3636 119.36 64.4169 118.84 67.0036 118.84C69.6169 118.84 71.6703 119.36 73.1636 120.4C74.6836 121.413 75.4436 122.96 75.4436 125.04ZM64.4036 125.04C64.4036 125.68 64.6436 126.16 65.1236 126.48C65.6036 126.773 66.2303 126.92 67.0036 126.92C67.8036 126.92 68.4436 126.773 68.9236 126.48C69.4036 126.16 69.6436 125.68 69.6436 125.04C69.6436 124.427 69.4036 123.973 68.9236 123.68C68.4436 123.387 67.8036 123.24 67.0036 123.24C66.2036 123.24 65.5636 123.387 65.0836 123.68C64.6303 123.973 64.4036 124.427 64.4036 125.04ZM77.6836 132C82.2703 132 85.7369 132.533 88.0836 133.6C90.4303 134.667 91.6036 136.267 91.6036 138.4C91.6036 140.56 90.4303 142.173 88.0836 143.24C85.7369 144.307 82.2703 144.84 77.6836 144.84C73.0969 144.84 69.6303 144.307 67.2836 143.24C64.9369 142.173 63.7636 140.56 63.7636 138.4C63.7636 136.267 64.9369 134.667 67.2836 133.6C69.6303 132.533 73.0969 132 77.6836 132ZM77.6836 140.12C80.1369 140.12 81.9369 139.973 83.0836 139.68C84.2569 139.413 84.8436 138.987 84.8436 138.4C84.8436 137.813 84.2569 137.387 83.0836 137.12C81.9369 136.853 80.1369 136.72 77.6836 136.72C75.2303 136.72 73.4169 136.853 72.2436 137.12C71.0969 137.387 70.5236 137.813 70.5236 138.4C70.5236 138.987 71.0969 139.413 72.2436 139.68C73.4169 139.973 75.2303 140.12 77.6836 140.12ZM123.511 116.88H128.231V122.24H123.511V130.08H116.831V106.64H123.511V116.88ZM98.2711 106.76H109.671V111.36H98.2711V106.76ZM92.8311 112.48H115.071V117.16H92.8311V112.48ZM113.231 124.16C113.231 126.213 112.391 127.76 110.711 128.8C109.031 129.84 106.778 130.36 103.951 130.36C101.124 130.36 98.8711 129.84 97.1911 128.8C95.5111 127.76 94.6711 126.213 94.6711 124.16C94.6711 122.08 95.5111 120.533 97.1911 119.52C98.8711 118.48 101.124 117.96 103.951 117.96C106.778 117.96 109.031 118.48 110.711 119.52C112.391 120.533 113.231 122.08 113.231 124.16ZM100.671 124.16C100.671 124.747 100.964 125.187 101.551 125.48C102.164 125.773 102.964 125.92 103.951 125.92C104.938 125.92 105.738 125.773 106.351 125.48C106.964 125.187 107.271 124.747 107.271 124.16C107.271 123.547 106.964 123.107 106.351 122.84C105.764 122.547 104.964 122.4 103.951 122.4C102.938 122.4 102.138 122.547 101.551 122.84C100.964 123.107 100.671 123.547 100.671 124.16ZM104.911 133.36H116.791V131.6H123.511V144.44H98.1911V131.6H104.911V133.36ZM104.911 139.76H116.791V137.92H104.911V139.76ZM160.739 144.96H154.059V106.64H160.739V144.96ZM129.939 111.28H136.579V131.36C137.432 131.413 138.139 131.44 138.699 131.44C140.912 131.44 143.139 131.267 145.379 130.92C147.645 130.573 149.539 130.04 151.059 129.32L152.299 134.96C150.565 135.68 148.392 136.227 145.779 136.6C143.165 136.973 140.459 137.16 137.659 137.16C134.939 137.16 132.365 136.987 129.939 136.64V111.28ZM193.966 121.92H199.006V127.36H193.966V144.96H187.286V106.64H193.966V121.92ZM171.166 132.16C172.019 132.213 172.713 132.24 173.246 132.24C175.246 132.24 177.273 132.08 179.326 131.76C181.379 131.44 183.099 130.96 184.486 130.32L185.686 135.52C184.113 136.187 182.113 136.693 179.686 137.04C177.259 137.36 174.713 137.52 172.046 137.52C169.246 137.52 166.766 137.36 164.606 137.04V112.08H183.086V117.44H171.166V132.16ZM203.474 141.68C202.274 141.68 201.327 141.333 200.634 140.64C199.967 139.947 199.634 139 199.634 137.8C199.634 136.6 199.967 135.653 200.634 134.96C201.327 134.267 202.274 133.92 203.474 133.92C204.674 133.92 205.607 134.267 206.274 134.96C206.967 135.653 207.314 136.6 207.314 137.8C207.314 139 206.967 139.947 206.274 140.64C205.607 141.333 204.674 141.68 203.474 141.68Z" fill="white"/>
</svg>
