<svg width="52" height="48" viewBox="0 0 52 48" fill="none" xmlns="http://www.w3.org/2000/svg">
<g filter="url(#filter0_d_4_271)">
<path d="M17.8 33.1C15.4667 33.1 13.6 32.2667 12.2 30.6C10.8667 28.8667 10.2 26.6333 10.2 23.9C10.2 20.1667 11.2 16.8 13.2 13.8C15.2667 10.7333 18.4 8.16666 22.6 6.1L23.7 7.7C21.7 8.9 19.8667 10.6 18.2 12.8C16.6 14.9333 15.8 17.1 15.8 19.3C15.8 19.9 15.9667 20.4 16.3 20.8C16.6333 21.1333 17.1333 21.3 17.8 21.3C19.4667 21.3 20.8667 21.9 22 23.1C23.2 24.2333 23.8 25.6333 23.8 27.3C23.8 28.9667 23.2 30.3667 22 31.5C20.8667 32.5667 19.4667 33.1 17.8 33.1ZM35.1 33.1C32.7667 33.1 30.9 32.2667 29.5 30.6C28.1667 28.8667 27.5 26.6333 27.5 23.9C27.5 20.1667 28.5 16.8 30.5 13.8C32.5667 10.7333 35.7 8.16666 39.9 6.1L41 7.7C39 8.9 37.1667 10.6 35.5 12.8C33.9 14.9333 33.1 17.1 33.1 19.3C33.1 19.9 33.2667 20.4 33.6 20.8C33.9333 21.1333 34.4333 21.3 35.1 21.3C36.7667 21.3 38.1667 21.9 39.3 23.1C40.5 24.2333 41.1 25.6333 41.1 27.3C41.1 28.9667 40.5 30.3667 39.3 31.5C38.1667 32.5667 36.7667 33.1 35.1 33.1Z" fill="white"/>
</g>
<defs>
<filter id="filter0_d_4_271" x="0.0999966" y="9.72748e-05" width="51.1" height="47.2" filterUnits="userSpaceOnUse" color-interpolation-filters="sRGB">
<feFlood flood-opacity="0" result="BackgroundImageFix"/>
<feColorMatrix in="SourceAlpha" type="matrix" values="0 0 0 0 0 0 0 0 0 0 0 0 0 0 0 0 0 0 127 0" result="hardAlpha"/>
<feOffset dy="4"/>
<feGaussianBlur stdDeviation="5.05"/>
<feComposite in2="hardAlpha" operator="out"/>
<feColorMatrix type="matrix" values="0 0 0 0 0 0 0 0 0 0 0 0 0 0 0 0 0 0 0.06 0"/>
<feBlend mode="normal" in2="BackgroundImageFix" result="effect1_dropShadow_4_271"/>
<feBlend mode="normal" in="SourceGraphic" in2="effect1_dropShadow_4_271" result="shape"/>
</filter>
</defs>
</svg>
