<svg width="50" height="50" viewBox="0 0 50 50" fill="none" xmlns="http://www.w3.org/2000/svg">
<rect width="50" height="50" fill="black" fill-opacity="0.7"/>
<path d="M11.8254 29.7861V28.3945H20.0432V29.7861H16.7473V39H15.1359V29.7861H11.8254ZM30.1436 33.6973C30.1436 37.0811 28.1074 39.1465 25.3682 39.1465C22.5996 39.1465 20.5781 37.0811 20.5781 33.6973C20.5781 30.2988 22.5996 28.248 25.3682 28.248C28.1074 28.248 30.1436 30.2988 30.1436 33.6973ZM28.5469 33.6973C28.5469 31.1191 27.1846 29.7275 25.3682 29.7275C23.5371 29.7275 22.1748 31.1191 22.1748 33.6973C22.1748 36.2754 23.5371 37.667 25.3682 37.667C27.1846 37.667 28.5469 36.2754 28.5469 33.6973ZM31.66 39V28.3945H35.4393C37.9002 28.3945 39.116 29.874 39.116 31.8369C39.116 33.7852 37.9002 35.2793 35.4393 35.2793H33.2713V39H31.66ZM33.2713 33.9023H35.2781C36.8455 33.9023 37.49 33.0234 37.49 31.8369C37.49 30.6357 36.8455 29.7715 35.2781 29.7715H33.2713V33.9023Z" fill="white"/>
<path d="M15 20L25 10L35 20" stroke="white" stroke-width="2"/>
</svg>
