<svg width="19" height="20" viewBox="0 0 19 20" fill="none" xmlns="http://www.w3.org/2000/svg">
<path d="M16.2542 18H2.25415V7H16.2542M13.2542 0V2H5.25415V0H3.25415V2H2.25415C1.14415 2 0.25415 2.89 0.25415 4V18C0.25415 18.5304 0.464864 19.0391 0.839937 19.4142C1.21501 19.7893 1.72372 20 2.25415 20H16.2542C16.7846 20 17.2933 19.7893 17.6684 19.4142C18.0434 19.0391 18.2542 18.5304 18.2542 18V4C18.2542 3.46957 18.0434 2.96086 17.6684 2.58579C17.2933 2.21071 16.7846 2 16.2542 2H15.2542V0M14.2542 11H9.25415V16H14.2542V11Z" fill="white"/>
</svg>
