<svg width="241" height="47" viewBox="0 0 241 47" fill="none" xmlns="http://www.w3.org/2000/svg">
<g clip-path="url(#clip0_1014_2232)">
<path d="M18.7607 34.4959H58.5089L55.8925 46.9944H0L4.2309 26.9968H20.3751L18.7607 34.4959ZM20.2638 24.7748H3.61854L18.0927 0H38.6905L42.5317 24.7748H25.8308L24.773 16.6091L20.2638 24.7748ZM58.4588 32.274H42.3146L49.162 0H65.3062L58.4588 32.274Z" fill="white"/>
<path d="M98.2071 38.9398H61.7991L63.8032 29.6076H116.361L112.687 46.9944H96.5426L98.2127 38.9398H98.2071ZM106.224 0L120.92 17.1646H100.879L100.824 17.1091L100.378 19.1644H119.696L117.859 27.9411H63.0739L64.911 19.1644H84.2284L84.6738 17.1091L84.6181 17.1646H64.577L86.6222 0H106.218H106.224ZM89.183 13.554H97.8675L94.416 9.38778L89.183 13.554Z" fill="white"/>
<path d="M175.087 33.6627H155.77L152.93 46.9944H136.786L139.625 33.6627H120.308L122.757 21.9974H157.44L161.559 12.4985H126.487L129.104 0H180.604L178.377 10.5543L173.255 21.9974H177.542L175.092 33.6627H175.087Z" fill="white"/>
<path d="M211.823 12.4985H206.869L206.479 23.5528L207.927 16.9424H212.38L215.943 0H227.634L217.669 47H205.978L209.875 28.6133H206.312L205.755 47H192.617L193.898 28.1689L187.217 47H174.135L187.663 12.5041H182.708L185.325 0.0055549H214.44L211.823 12.5041V12.4985ZM231.035 47H219.344L229.309 0H241L231.035 47Z" fill="white"/>
</g>
<defs>
<clipPath id="clip0_1014_2232">
<rect width="241" height="47" fill="white"/>
</clipPath>
</defs>
</svg>
