<svg width="163" height="32" viewBox="0 0 163 32" fill="none" xmlns="http://www.w3.org/2000/svg">
<g clip-path="url(#clip0_1014_2227)">
<path d="M12.6888 23.4866H39.5724L37.8028 31.9962H0L2.86156 18.3808H13.7807L12.6888 23.4866ZM13.7054 16.868H2.44739L12.237 0H26.1683L28.7663 16.868H17.4706L16.7552 11.3084L13.7054 16.868ZM39.5385 21.9738H28.6194L33.2506 0H44.1698L39.5385 21.9738Z" fill="#181818"/>
<path d="M66.4221 26.5122H41.7976L43.1531 20.1584H78.7005L76.2155 31.9962H65.2963L66.4259 26.5122H66.4221ZM71.844 0L81.7842 11.6866H68.2294L68.1918 11.6487L67.8906 13.0481H80.9559L79.7133 19.0238H42.6598L43.9024 13.0481H56.9677L57.2689 11.6487L57.2312 11.6866H43.6764L58.5867 0H71.8403H71.844ZM60.3187 9.22822H66.1924L63.858 6.39168L60.3187 9.22822Z" fill="#181818"/>
<path d="M118.42 22.9193H105.355L103.434 31.9962H92.5152L94.4354 22.9193H81.3701L83.0268 14.977H106.484L109.27 8.50963H85.5495L87.3192 0H122.151L120.645 7.18591L117.181 14.977H120.08L118.424 22.9193H118.42Z" fill="#181818"/>
<path d="M143.266 8.50963H139.915L139.652 16.0359L140.631 11.5353H143.643L146.053 0H153.96L147.22 32H139.313L141.949 19.4814H139.539L139.162 32H130.276L131.142 19.1788L126.624 32H117.776L126.925 8.51341H123.574L125.344 0.00378206H145.036L143.266 8.51341V8.50963ZM156.26 32H148.353L155.093 0H163L156.26 32Z" fill="#181818"/>
</g>
<defs>
<clipPath id="clip0_1014_2227">
<rect width="163" height="32" fill="white"/>
</clipPath>
</defs>
</svg>
