<svg width="277" height="70" viewBox="0 0 277 70" fill="none" xmlns="http://www.w3.org/2000/svg">
<path d="M58.7099 12.616H50.3579V14.792H61.7499V18.152H35.1899V14.792H46.6139V12.616H38.2619V0.807999H42.0059V4.072H54.9339V0.807999H58.7099V12.616ZM54.8699 28.584V23.016H38.0059V19.688H58.6139V28.584H54.8699ZM54.9659 9.32V7.24H42.0059V9.32H54.9659ZM85.4044 28.296H65.4364V16.872H69.1804V19.752H81.6604V16.872H85.4044V28.296ZM80.2204 12.776L77.7884 15.56C74.6844 14.376 73.1164 12.808 72.1564 11.656C71.7404 11.08 71.3244 10.472 71.1644 9.896H70.6524C70.5564 10.472 70.3644 10.984 69.7884 11.912C69.1804 12.904 67.7084 14.952 64.4124 16.776L61.6924 14.344C67.5164 11.208 68.7964 7.72 68.9564 5.096H62.7164V1.672H78.6524V5.096H72.7644C72.9884 7.656 74.5564 10.952 80.2204 12.776ZM85.4044 15.56H81.6604V0.487999H85.4044V7.816H90.3004V11.24H85.4044V15.56ZM81.6604 25.032V22.824H69.1804V25.032H81.6604ZM91.2131 14.696C91.2131 11.944 93.5171 9.928 98.4131 9.928C103.309 9.928 105.645 11.944 105.645 14.696C105.645 17.512 103.309 19.432 98.4131 19.432C93.5171 19.432 91.2131 17.48 91.2131 14.696ZM113.293 22.216H109.549V0.487999H113.293V10.024H118.157V13.48H113.293V22.216ZM93.8051 21.064H97.5491V24.744H114.061V28.136H93.8051V21.064ZM107.245 8.552H89.8691V5.576H107.245V8.552ZM93.0051 3.208L93.7091 0.103998C96.5251 1.064 100.301 0.935999 103.629 0.872V4.072C100.013 4.168 95.4691 4.232 93.0051 3.208ZM94.5411 14.696C94.5411 15.976 95.8851 16.616 98.4131 16.616C100.941 16.616 102.317 15.976 102.317 14.696C102.317 13.48 100.941 12.808 98.4131 12.808C95.8851 12.808 94.5411 13.512 94.5411 14.696ZM126.944 23.016C126.944 19.752 130.24 17.576 137.344 17.576C144.416 17.576 147.776 19.752 147.776 23.016C147.776 26.248 144.416 28.424 137.344 28.424C130.24 28.424 126.944 26.248 126.944 23.016ZM141.312 12.968L138.72 15.752C135.264 14.056 133.6 11.656 133.12 10.76C132.864 10.312 132.64 9.832 132.544 9.384H132.032C131.936 9.832 131.872 10.28 131.552 10.984C130.784 12.648 129.28 15.016 125.696 17.096L122.88 14.632C129.44 11.048 130.368 5.864 130.368 2.728V1.192H134.048V2.728C134.048 5.704 134.912 10.12 141.312 12.968ZM147.232 16.776H143.488V0.487999H147.232V7.816H152.096V11.24H147.232V16.776ZM130.848 23.016C130.848 24.744 133.664 25.192 137.344 25.192C141.056 25.192 143.872 24.744 143.872 23.016C143.872 21.288 141.056 20.808 137.344 20.808C133.664 20.808 130.848 21.288 130.848 23.016ZM177.512 17.064H150.952V13.64H162.376V10.344H166.12V13.64H177.512V17.064ZM170.632 28.584V22.504H153.768V19.048H174.376V28.584H170.632ZM164.52 6.28H163.976C163.88 6.632 163.752 6.984 162.92 7.912C161.864 9.096 158.376 11.048 154.408 11.816L152.648 8.904C159.176 7.56 162.376 4.232 162.376 1.832V0.807999H166.12V1.832C166.12 4.264 168.936 7.176 175.784 8.36L174.056 11.336C170.056 10.728 167.016 9.064 165.672 7.784C164.968 7.08 164.616 6.632 164.52 6.28ZM207.165 12.648H186.717V1.288H207.165V12.648ZM199.261 22.632H195.517V18.472H183.645V15.016H210.205V18.472H199.261V22.632ZM186.717 20.232H190.461V24.84H208.125V28.296H186.717V20.232ZM203.421 9.32V4.616H190.461V9.32H203.421ZM219.043 16.296C218.755 15.56 218.531 14.664 218.467 14.312H218.019C217.955 14.664 217.827 15.496 217.539 16.36C216.931 17.992 215.907 20.136 213.411 22.472L210.467 20.136C216.547 14.472 216.355 8.424 216.355 5.992V5.672H211.427V2.216H224.803V5.672H220.003V5.992C220.003 9.288 220.163 14.728 225.571 19.336L222.755 21.8C220.419 19.496 219.587 17.544 219.043 16.296ZM230.307 0.647999V27.144H226.563V12.776H222.659V9.352H226.563V0.647999H230.307ZM232.067 27.304V0.487999H235.811V27.304H232.067ZM237.739 20.872H242.635C242.859 22.472 242.667 24.904 242.507 25.544C242.219 26.728 241.739 28.328 240.619 29.672H237.803C238.827 28.488 239.691 26.6 239.851 25.608H237.739V20.872Z" fill="#EDC98F"/>
<path d="M16.805 46.096H11.013C11.013 48.464 11.717 53.456 17.637 56.016L14.981 58.608C12.389 57.136 11.045 55.408 10.437 54.48C10.021 53.872 9.605 53.04 9.477 52.464H8.997C8.901 53.04 8.581 53.84 8.037 54.736C7.429 55.824 6.277 57.488 3.397 59.504L0.453002 57.104C6.565 53.36 7.237 48.752 7.269 46.096H1.477V42.672H16.805V46.096ZM15.141 52.24V48.816H20.741V41.488H24.485V62.896H20.741V52.24H15.141ZM4.517 60.656H8.261V65.744H25.125V69.136H4.517V60.656ZM50.1318 53.648H29.6838V42.288H50.1318V53.648ZM42.2278 63.632H38.4838V59.472H26.6118V56.016H53.1718V59.472H42.2278V63.632ZM29.6838 61.232H33.4278V65.84H51.0918V69.296H29.6838V61.232ZM46.3878 50.32V45.616H33.4278V50.32H46.3878ZM63.8663 64.144L60.0583 63.568C61.9463 58.128 62.6823 50.448 62.7463 46.32H52.5063V42.896H66.6823C66.6823 48.944 65.8183 58.192 63.8663 64.144ZM75.8983 68.304H72.1543V41.488H75.8983V50.832H80.7623V54.288H75.8983V68.304ZM80.6445 49.584C80.6445 45.328 83.6525 42.128 88.6765 42.128C93.7005 42.128 96.7085 45.328 96.7085 49.584C96.7085 53.872 93.7005 57.104 88.6765 57.104C83.6525 57.104 80.6445 53.872 80.6445 49.584ZM103.493 68.304H99.7485V63.792C96.2605 64.4 92.0365 64.592 87.2365 64.592H79.4605V61.168H86.8205C91.2045 61.168 95.9725 61.04 99.7485 60.272V41.488H103.493V68.304ZM84.1645 49.584C84.1645 51.792 85.6685 53.744 88.6765 53.744C91.6845 53.744 93.2205 51.792 93.2205 49.584C93.2205 47.408 91.6845 45.36 88.6765 45.36C85.6685 45.36 84.1645 47.408 84.1645 49.584ZM135.681 53.36L136.129 56.784C133.793 57.328 131.105 57.488 126.977 57.52V62.64H138.369V66.064H111.809V62.64H123.233V57.52H114.945V42.736H135.233V46.224H118.625V54.064H125.825C130.081 54.064 132.513 53.968 135.681 53.36ZM164.872 57.744H153.48V60.048H161.832V69.584H141.384V60.048H149.736V57.744H138.312V54.32H164.872V57.744ZM140.904 47.056C140.904 43.472 144.776 41.488 151.592 41.488C158.312 41.488 162.28 43.44 162.28 47.056C162.28 50.672 158.312 52.624 151.592 52.624C144.776 52.624 140.904 50.672 140.904 47.056ZM144.84 47.056C144.84 48.592 147.112 49.392 151.592 49.392C155.976 49.392 158.344 48.592 158.344 47.056C158.344 45.552 155.976 44.72 151.592 44.72C147.112 44.72 144.84 45.552 144.84 47.056ZM158.088 66.224V63.44H145.128V66.224H158.088ZM191.374 66.064H164.814V62.64H191.374V66.064ZM167.534 50.096C167.534 45.552 171.022 42.352 178.094 42.352C185.134 42.352 188.622 45.552 188.622 50.096C188.622 54.64 185.134 57.84 178.094 57.84C171.022 57.84 167.534 54.64 167.534 50.096ZM171.182 50.096C171.182 52.56 173.262 54.416 178.094 54.416C182.926 54.416 184.974 52.56 184.974 50.096C184.974 47.632 182.926 45.776 178.094 45.776C173.262 45.776 171.182 47.632 171.182 50.096ZM215.381 54.64L215.925 57.936C213.557 58.48 210.645 58.672 206.485 58.672V62.64H217.877V66.064H191.317V62.64H202.741V58.672H194.453V48.88H211.093V46H194.453V42.608H214.741V52.272H198.133V55.28H205.301C209.557 55.28 212.181 55.184 215.381 54.64ZM245.769 68.304V55.376H243.529V68.144H239.785V41.648H243.529V51.952H245.769V41.488H249.513V68.304H245.769ZM225.321 58.768C225.321 55.376 227.657 53.136 231.625 53.136C235.657 53.136 237.993 55.376 237.993 58.768C237.993 62 235.657 64.432 231.625 64.432C227.657 64.432 225.321 62 225.321 58.768ZM238.537 51.504H224.009V48.272H238.537V51.504ZM226.569 45.296L227.273 42.032C230.089 42.96 232.809 42.896 236.169 42.832V46.16C232.553 46.256 228.841 46.192 226.569 45.296ZM228.777 58.768C228.777 60.432 229.993 61.392 231.625 61.392C233.289 61.392 234.505 60.464 234.505 58.768C234.505 57.136 233.289 56.08 231.625 56.08C229.993 56.08 228.777 57.136 228.777 58.768ZM276.309 69.584H255.221V61.776H271.605V60.144H255.221V56.976H275.349V64.688H258.997V66.416H276.309V69.584ZM265.557 48.752V45.328H271.605V41.488H275.349V55.664H271.605V54.224H265.557V50.768H271.605V48.752H265.557ZM262.485 55.472L258.837 54.48C260.181 51.28 260.725 48.016 260.789 45.776H250.709V42.352H264.789C264.789 47.664 264.085 51.792 262.485 55.472Z" fill="white"/>
</svg>
