<svg width="33" height="42" viewBox="0 0 33 42" fill="none" xmlns="http://www.w3.org/2000/svg">
<path d="M28.3858 42H0C0.545133 38.549 1.77168 35.549 3.67965 33C5.62655 30.451 8.06018 28.2941 10.9805 26.5294C12.4991 25.5882 14.0566 24.6275 15.6531 23.6471C17.2885 22.6275 18.9434 21.6078 20.6177 20.5882C22.292 19.5686 23.6549 18.3529 24.7062 16.9412C25.7965 15.5294 26.3416 13.6667 26.3416 11.3529C26.3416 10.4118 26.1469 9.58824 25.7575 8.88235C25.4071 8.13726 24.9204 7.52941 24.2973 7.05883C23.7133 6.54902 23.0124 6.17647 22.1947 5.94118C21.377 5.70589 20.5398 5.58824 19.6832 5.58824C18.3982 5.58824 17.2496 5.84314 16.2372 6.35294C15.2248 6.82353 14.3487 7.4902 13.6088 8.35294C12.908 9.17647 12.3434 10.1765 11.915 11.3529C11.5257 12.4902 11.292 13.7255 11.2142 15.0588H4.90619C5.10088 12.8235 5.56814 10.7843 6.30796 8.94118C7.04779 7.05882 8.06018 5.47059 9.34513 4.17647C10.6301 2.84314 12.1876 1.82353 14.0177 1.11765C15.8478 0.372549 17.931 0 20.2673 0C22.0584 0 23.7133 0.235295 25.2319 0.705884C26.7894 1.17647 28.1327 1.88236 29.2619 2.82353C30.4301 3.76471 31.3451 4.96079 32.0071 6.41177C32.669 7.82353 33 9.50981 33 11.4706C33 13.1961 32.7469 14.7451 32.2407 16.1176C31.7735 17.451 31.1115 18.6863 30.2549 19.8235C29.3982 20.9216 28.3858 21.9412 27.2177 22.8824C26.0496 23.8235 24.8035 24.7059 23.4796 25.5294C22.1558 26.3529 20.8124 27.1569 19.4496 27.9412C18.0867 28.7255 16.7628 29.5294 15.4779 30.3529C14.1929 31.1765 12.9858 32.0588 11.8566 33C10.7274 33.902 9.75398 34.902 8.93628 36H29.6708L28.3858 42Z" fill="url(#paint0_linear_995_2105)"/>
<defs>
<linearGradient id="paint0_linear_995_2105" x1="18.4354" y1="-20.0118" x2="34.1794" y2="71.5253" gradientUnits="userSpaceOnUse">
<stop stop-color="#04CF98"/>
<stop offset="1" stop-color="#04CF98" stop-opacity="0"/>
</linearGradient>
</defs>
</svg>
