<svg width="32" height="43" viewBox="0 0 32 43" fill="none" xmlns="http://www.w3.org/2000/svg">
<path d="M14.3142 17.956H15.7338C16.9563 17.956 18.1392 17.8773 19.2828 17.7198C20.4264 17.5623 21.4319 17.2473 22.2994 16.7747C23.2064 16.3022 23.9162 15.6328 24.4288 14.7665C24.9809 13.9002 25.2569 12.7386 25.2569 11.2816C25.2569 9.35211 24.626 7.93452 23.3641 7.02885C22.1417 6.08379 20.6827 5.61127 18.9871 5.61127C16.5816 5.61127 14.6691 6.35944 13.2495 7.85577C11.8694 9.35211 10.9624 11.2422 10.5287 13.5261H4.14048C4.49538 11.5179 5.06716 9.68681 5.85582 8.03297C6.68392 6.33974 7.74861 4.90247 9.04991 3.72116C10.3512 2.53984 11.8891 1.63416 13.6636 1.00412C15.4381 0.334708 17.4492 0 19.6969 0C21.2742 0 22.7924 0.216577 24.2514 0.649728C25.7498 1.0435 27.0709 1.65385 28.2144 2.48077C29.358 3.30769 30.2649 4.37088 30.9353 5.67033C31.6451 6.96978 32 8.5055 32 10.2775C32 12.8764 31.2902 15.0618 29.8706 16.8338C28.451 18.5664 26.6174 19.7083 24.3697 20.2596V20.3777C26.2625 21.0865 27.5835 22.2088 28.3327 23.7445C29.1214 25.2408 29.5157 26.9734 29.5157 28.9423C29.5157 31.2262 29.0622 33.2541 28.1553 35.0261C27.2877 36.7587 26.085 38.2157 24.5471 39.397C23.0487 40.5783 21.2939 41.484 19.2828 42.114C17.2717 42.7047 15.1226 43 12.8355 43C8.93161 43 5.81639 41.9762 3.48983 39.9286C1.16328 37.8416 0 34.967 0 31.3049C0 30.6749 0.0197165 30.1827 0.0591497 29.8283C0.0591497 29.4739 0.0788663 29.0604 0.118299 28.5879H6.50647C6.46704 28.9029 6.4276 29.2179 6.38817 29.533C6.38817 29.8086 6.38817 30.0842 6.38817 30.3599C6.38817 32.5256 7.05853 34.2385 8.39926 35.4986C9.77942 36.7587 11.6525 37.3887 14.0185 37.3887C16.6605 37.3887 18.7702 36.6209 20.3475 35.0852C21.9643 33.5101 22.7726 31.4034 22.7726 28.7651C22.7726 27.5838 22.536 26.619 22.0628 25.8709C21.6291 25.0833 21.0376 24.4927 20.2884 24.0989C19.5786 23.6657 18.7505 23.3704 17.8041 23.2129C16.8971 23.0554 15.9704 22.9766 15.024 22.9766H13.2495L14.3142 17.956Z" fill="url(#paint0_linear_995_2106)"/>
<defs>
<linearGradient id="paint0_linear_995_2106" x1="17.191" y1="-19.1339" x2="35.948" y2="81.1493" gradientUnits="userSpaceOnUse">
<stop stop-color="#04CF98"/>
<stop offset="1" stop-color="#04CF98" stop-opacity="0"/>
</linearGradient>
</defs>
</svg>
